<svg xmlns="http://www.w3.org/2000/svg" xmlns:xlink="http://www.w3.org/1999/xlink" width="151" zoomAndPan="magnify" viewBox="0 0 113.25 33.749999" height="45" preserveAspectRatio="xMidYMid meet" version="1.0"><defs><g/></defs><g fill="#f47426" fill-opacity="1"><g transform="translate(0.823897, 25.372315)"><g><path d="M 8.359375 -10.496094 C 4.789062 -11.117188 3.246094 -11.875 3.246094 -13.769531 C 3.246094 -16.011719 5.085938 -17.175781 8.035156 -17.175781 C 10.117188 -17.175781 12.171875 -16.445312 12.660156 -14.417969 L 14.523438 -15.066406 C 13.820312 -17.367188 11.359375 -19.125 8.035156 -19.125 C 3.382812 -19.125 1.269531 -16.554688 1.296875 -13.769531 C 1.324219 -10.277344 4.328125 -9.25 8.035156 -8.574219 C 11.738281 -7.898438 13.335938 -7.332031 13.335938 -5.273438 C 13.335938 -2.625 10.359375 -1.730469 8.359375 -1.730469 C 5.492188 -1.730469 3.433594 -2.785156 2.679688 -4.597656 L 0.8125 -3.949219 C 1.597656 -1.8125 4.136719 0.214844 8.414062 0.214844 C 11.875 0.214844 15.308594 -1.621094 15.308594 -5.273438 C 15.308594 -9.007812 11.847656 -9.925781 8.359375 -10.496094 Z M 8.359375 -10.496094 "/></g></g></g><g fill="#000000" fill-opacity="1"><g transform="translate(16.963304, 25.372315)"><g><path d="M 7.222656 -13.226562 C 5.625 -13.226562 4.355469 -12.578125 3.460938 -11.523438 L 3.460938 -18.933594 L 1.488281 -18.933594 L 1.488281 0 L 3.460938 0 L 3.460938 -7.03125 C 3.460938 -9.925781 4.921875 -11.28125 6.925781 -11.28125 C 9.035156 -11.28125 10.222656 -10.035156 10.222656 -7.195312 C 10.222656 -5.246094 10.222656 0 10.222656 0 L 12.171875 0 C 12.171875 0 12.171875 -2.867188 12.171875 -7.195312 C 12.171875 -11.984375 9.820312 -13.226562 7.222656 -13.226562 Z M 7.222656 -13.226562 "/></g></g></g><g fill="#000000" fill-opacity="1"><g transform="translate(30.487677, 25.372315)"><g><path d="M 7.222656 -13.226562 C 3.515625 -13.226562 0.945312 -10.222656 0.945312 -6.492188 C 0.945312 -2.757812 3.515625 0.214844 7.222656 0.214844 C 10.953125 0.214844 13.578125 -2.757812 13.578125 -6.492188 C 13.578125 -10.222656 10.953125 -13.226562 7.222656 -13.226562 Z M 7.222656 -1.703125 C 4.542969 -1.703125 2.921875 -3.8125 2.921875 -6.492188 C 2.921875 -9.167969 4.542969 -11.332031 7.222656 -11.332031 C 9.898438 -11.332031 11.605469 -9.167969 11.605469 -6.492188 C 11.605469 -3.8125 9.898438 -1.703125 7.222656 -1.703125 Z M 7.222656 -1.703125 "/></g></g></g><g fill="#000000" fill-opacity="1"><g transform="translate(45.012845, 25.372315)"><g><path d="M 7.003906 -13.226562 C 3.300781 -13.226562 0.8125 -10.222656 0.8125 -6.492188 C 0.8125 -2.785156 3.460938 0.1875 7.167969 0.1875 C 9.546875 0.1875 11.386719 -0.972656 12.46875 -2.8125 L 10.765625 -3.652344 C 9.980469 -2.433594 8.789062 -1.703125 7.167969 -1.703125 C 4.734375 -1.703125 3.109375 -3.460938 2.839844 -5.816406 L 12.875 -5.816406 C 12.875 -6.03125 12.902344 -6.273438 12.902344 -6.492188 C 12.902344 -10.222656 10.738281 -13.226562 7.003906 -13.226562 Z M 7.003906 -11.332031 C 9.25 -11.332031 10.523438 -9.820312 10.902344 -7.761719 L 2.921875 -7.761719 C 3.328125 -9.820312 4.789062 -11.332031 7.003906 -11.332031 Z M 7.003906 -11.332031 "/></g></g></g><g fill="#f47426" fill-opacity="1"><g transform="translate(58.883499, 25.372315)"><g><path d="M 3.570312 -1.949219 L 3.570312 -18.933594 L 1.621094 -18.933594 L 1.621094 0 L 12.984375 0 L 12.984375 -1.949219 Z M 3.570312 -1.949219 "/></g></g></g><g fill="#000000" fill-opacity="1"><g transform="translate(72.434261, 25.372315)"><g><path d="M 10.089844 -13.039062 L 10.089844 -6.003906 C 10.089844 -3.109375 8.628906 -1.757812 6.625 -1.757812 C 4.515625 -1.757812 3.328125 -3.003906 3.328125 -5.84375 C 3.328125 -7.789062 3.328125 -13.039062 3.328125 -13.039062 L 1.351562 -13.039062 C 1.351562 -13.039062 1.351562 -10.171875 1.351562 -5.84375 C 1.351562 -1.054688 3.8125 0.214844 6.382812 0.214844 C 7.980469 0.214844 9.195312 -0.460938 10.089844 -1.515625 L 10.089844 0 L 12.035156 0 L 12.035156 -13.039062 Z M 10.089844 -13.039062 "/></g></g></g><g fill="#000000" fill-opacity="1"><g transform="translate(85.958635, 25.372315)"><g><path d="M 12.171875 0 L 7.355469 -6.707031 L 11.902344 -13.039062 L 9.46875 -13.039062 L 6.140625 -8.386719 L 2.8125 -13.039062 L 0.40625 -13.039062 L 4.949219 -6.707031 L 0.136719 0 L 2.542969 0 L 6.140625 -5.03125 L 9.765625 0 Z M 12.171875 0 "/></g></g></g><g fill="#000000" fill-opacity="1"><g transform="translate(98.265815, 25.372315)"><g><path d="M 7.003906 -13.226562 C 3.300781 -13.226562 0.8125 -10.222656 0.8125 -6.492188 C 0.8125 -2.785156 3.460938 0.1875 7.167969 0.1875 C 9.546875 0.1875 11.386719 -0.972656 12.46875 -2.8125 L 10.765625 -3.652344 C 9.980469 -2.433594 8.789062 -1.703125 7.167969 -1.703125 C 4.734375 -1.703125 3.109375 -3.460938 2.839844 -5.816406 L 12.875 -5.816406 C 12.875 -6.03125 12.902344 -6.273438 12.902344 -6.492188 C 12.902344 -10.222656 10.738281 -13.226562 7.003906 -13.226562 Z M 7.003906 -11.332031 C 9.25 -11.332031 10.523438 -9.820312 10.902344 -7.761719 L 2.921875 -7.761719 C 3.328125 -9.820312 4.789062 -11.332031 7.003906 -11.332031 Z M 7.003906 -11.332031 "/></g></g></g></svg>